<svg width="91" height="81" viewBox="0 0 91 81" fill="none" xmlns="http://www.w3.org/2000/svg">
<path d="M76.8143 80.5C85.7714 60 89.7 30 90.4857 13.5L33.4428 9.5C32.6885 27.5 23.0714 60 14.1143 71L76.8143 80.5Z" fill="url(#paint0_linear_1218_2127)"/>
<path d="M72.0996 71.5C81.0568 60 90.0139 27.1667 90.4854 13.5L37.6854 8.5C36.9311 25.7 16.6282 51 7.98535 61L72.0996 71.5Z" fill="url(#paint1_linear_1218_2127)"/>
<path d="M67.8569 61C79.1712 51 89.5426 23.1667 90.4855 13.5L29.6712 6C27.0312 27.2 9.71406 45.1667 0.914062 51.5L67.8569 61Z" fill="url(#paint2_linear_1218_2127)"/>
<ellipse cx="41.4614" cy="13.7656" rx="2.82857" ry="3" fill="#F9F9FB"/>
<path d="M38.6279 13.7656C38.6279 12.1088 39.8943 10.7656 41.4565 10.7656C40.0422 11.4852 37.8736 13.6584 40.5136 16.5949C39.415 16.1831 38.6279 15.0718 38.6279 13.7656Z" fill="#339DE2"/>
<ellipse cx="57.4907" cy="15.7656" rx="2.82858" ry="3" fill="#F9F9FB"/>
<path d="M54.6572 15.7656C54.6572 14.1088 55.9236 12.7656 57.4858 12.7656C56.0715 13.4852 53.9029 15.6584 56.5429 18.5949C55.4443 18.1831 54.6572 17.0718 54.6572 15.7656Z" fill="#339DE2"/>
<ellipse cx="74.4614" cy="17.7656" rx="2.82857" ry="3" fill="#F9F9FB"/>
<path d="M71.6279 17.7656C71.6279 16.1088 72.8943 14.7656 74.4565 14.7656C73.0422 15.4852 70.8736 17.6584 73.5136 20.5949C72.415 20.1831 71.6279 19.0718 71.6279 17.7656Z" fill="#339DE2"/>
<path d="M46.1738 4.76543C46.1739 1.26563 42.1676 0.290617 40.5181 3.26563C38.8918 6.19885 39.0993 11 41.9314 13.2656" stroke="url(#paint3_linear_1218_2127)" stroke-width="2" stroke-linecap="round" stroke-linejoin="round"/>
<path d="M62.2031 6.76543C62.2032 3.26563 58.1969 2.29062 56.5474 5.26563C54.9211 8.19885 55.1286 13 57.9607 15.2656" stroke="url(#paint4_linear_1218_2127)" stroke-width="2" stroke-linecap="round" stroke-linejoin="round"/>
<path d="M79.1738 8.76543C79.1739 5.26563 75.1676 4.29062 73.5181 7.26563C71.8918 10.1988 72.0993 15 74.9314 17.2656" stroke="url(#paint5_linear_1218_2127)" stroke-width="2" stroke-linecap="round" stroke-linejoin="round"/>
<defs>
<linearGradient id="paint0_linear_1218_2127" x1="63.6143" y1="9.5" x2="41.1451" y2="67.1434" gradientUnits="userSpaceOnUse">
<stop stop-color="#3C8AC1"/>
<stop offset="1" stop-color="#81C6F7"/>
</linearGradient>
<linearGradient id="paint1_linear_1218_2127" x1="62.6711" y1="4" x2="43.7485" y2="68.4269" gradientUnits="userSpaceOnUse">
<stop stop-color="#2293DD"/>
<stop offset="1" stop-color="#A4DBFF"/>
</linearGradient>
<linearGradient id="paint2_linear_1218_2127" x1="43.8141" y1="58.5" x2="70.1244" y2="12.2911" gradientUnits="userSpaceOnUse">
<stop stop-color="#D1EDFF"/>
<stop offset="1" stop-color="#81CDFF"/>
</linearGradient>
<linearGradient id="paint3_linear_1218_2127" x1="42.8354" y1="1.5" x2="42.8354" y2="13.2656" gradientUnits="userSpaceOnUse">
<stop stop-color="#0F5F99"/>
<stop offset="1" stop-color="#498FC1"/>
</linearGradient>
<linearGradient id="paint4_linear_1218_2127" x1="58.8647" y1="3.5" x2="58.8647" y2="15.2656" gradientUnits="userSpaceOnUse">
<stop stop-color="#0F5F99"/>
<stop offset="1" stop-color="#498FC1"/>
</linearGradient>
<linearGradient id="paint5_linear_1218_2127" x1="75.8354" y1="5.5" x2="75.8354" y2="17.2656" gradientUnits="userSpaceOnUse">
<stop stop-color="#0F5F99"/>
<stop offset="1" stop-color="#498FC1"/>
</linearGradient>
</defs>
</svg>
