<svg width="40" height="40" viewBox="0 0 40 40" fill="none" xmlns="http://www.w3.org/2000/svg">
<path d="M16.1 32.8V21.7H10.2C10.2 20.5667 10.2667 19.4333 10.4 18.3C10.6 17.1 10.9333 16.0333 11.4 15.1C11.8667 14.1667 12.4667 13.4333 13.2 12.9C13.9333 12.3 14.8667 12 16 12V7C14.1333 7 12.5 7.4 11.1 8.2C9.7 9 8.53333 10.0667 7.6 11.4C6.73333 12.7333 6.06667 14.3 5.6 16.1C5.2 17.8333 5 19.7 5 21.7V32.8H16.1ZM34.4 32.8V21.7H28.5C28.5 20.5667 28.5667 19.4333 28.7 18.3C28.9 17.1 29.2333 16.0333 29.7 15.1C30.1667 14.1667 30.7667 13.4333 31.5 12.9C32.2333 12.3 33.1667 12 34.3 12V7C32.4333 7 30.8 7.4 29.4 8.2C28 9 26.8333 10.0667 25.9 11.4C25.0333 12.7333 24.3667 14.3 23.9 16.1C23.5 17.8333 23.3 19.7 23.3 21.7V32.8H34.4Z" fill="#0070C0"/>
</svg>
