<svg width="12" height="19" viewBox="0 0 12 19" fill="none" xmlns="http://www.w3.org/2000/svg">
<path d="M4.07451 12V11C4.07451 10.6333 4.12451 10.3 4.22451 10C4.34118 9.68333 4.49951 9.39167 4.69951 9.125C4.89951 8.85833 5.13285 8.6 5.39951 8.35C5.68285 8.1 5.98285 7.85 6.29951 7.6C6.84951 7.13333 7.27451 6.71667 7.57451 6.35C7.89118 5.96667 8.04951 5.55833 8.04951 5.125C8.04951 4.575 7.88285 4.15 7.54951 3.85C7.21618 3.53333 6.69951 3.375 5.99951 3.375C5.33285 3.375 4.82451 3.55 4.47451 3.9C4.12451 4.25 3.94951 4.74167 3.94951 5.375H-0.000488251C-0.000488251 4.65833 0.141178 3.99167 0.424512 3.375C0.707845 2.74167 1.10785 2.19167 1.62451 1.725C2.14118 1.24167 2.76618 0.866666 3.49951 0.599999C4.24951 0.316665 5.08285 0.174999 5.99951 0.174999C6.98285 0.174999 7.84118 0.299999 8.57451 0.55C9.32451 0.799999 9.94951 1.14167 10.4495 1.575C10.9662 2.00833 11.3495 2.51667 11.5995 3.1C11.8662 3.68333 11.9995 4.31667 11.9995 5C11.9995 5.51667 11.9328 5.98333 11.7995 6.4C11.6828 6.81667 11.5162 7.2 11.2995 7.55C11.0995 7.88333 10.8662 8.19167 10.5995 8.475C10.3495 8.75833 10.0828 9.01667 9.79951 9.25C9.36618 9.63333 9.02451 9.95 8.77451 10.2C8.52451 10.45 8.33285 10.6583 8.19951 10.825C8.08285 10.9917 8.00785 11.1333 7.97451 11.25C7.94118 11.3667 7.92451 11.4917 7.92451 11.625V12H4.07451ZM5.99951 18.325C5.66618 18.325 5.34951 18.2583 5.04951 18.125C4.76618 18.0083 4.51618 17.85 4.29951 17.65C4.09951 17.4333 3.93285 17.1833 3.79951 16.9C3.68285 16.6 3.62451 16.2833 3.62451 15.95C3.62451 15.6167 3.68285 15.3083 3.79951 15.025C3.93285 14.725 4.09951 14.475 4.29951 14.275C4.51618 14.0583 4.76618 13.8917 5.04951 13.775C5.34951 13.6417 5.66618 13.575 5.99951 13.575C6.33285 13.575 6.64118 13.6417 6.92451 13.775C7.22451 13.8917 7.47451 14.0583 7.67451 14.275C7.89118 14.475 8.05785 14.725 8.17451 15.025C8.30785 15.3083 8.37451 15.6167 8.37451 15.95C8.37451 16.2833 8.30785 16.6 8.17451 16.9C8.05785 17.1833 7.89118 17.4333 7.67451 17.65C7.47451 17.85 7.22451 18.0083 6.92451 18.125C6.64118 18.2583 6.33285 18.325 5.99951 18.325Z" fill="#E1E1E1"/>
</svg>
