<svg width="55" height="60" viewBox="0 0 55 60" fill="none" xmlns="http://www.w3.org/2000/svg">
<path d="M0 60V0H55V60L27.9365 44.8862L0 60Z" fill="url(#paint0_radial_406_4310)"/>
<path d="M5.81656 27V18.6H7.97656V21.792H11.0966V18.6H13.2566V27H11.0966V23.568H7.97656V27H5.81656ZM18.7138 27.156C18.1618 27.156 17.6378 27.076 17.1418 26.916C16.6458 26.756 16.2098 26.504 15.8338 26.16C15.4658 25.808 15.1738 25.364 14.9578 24.828C14.7418 24.284 14.6338 23.628 14.6338 22.86V22.62C14.6338 21.884 14.7418 21.252 14.9578 20.724C15.1738 20.196 15.4658 19.764 15.8338 19.428C16.2098 19.092 16.6458 18.844 17.1418 18.684C17.6378 18.524 18.1618 18.444 18.7138 18.444C19.2658 18.444 19.7898 18.524 20.2858 18.684C20.7818 18.844 21.2138 19.092 21.5818 19.428C21.9578 19.764 22.2538 20.196 22.4698 20.724C22.6858 21.252 22.7938 21.884 22.7938 22.62V22.86C22.7938 23.628 22.6858 24.284 22.4698 24.828C22.2538 25.364 21.9578 25.808 21.5818 26.16C21.2138 26.504 20.7818 26.756 20.2858 26.916C19.7898 27.076 19.2658 27.156 18.7138 27.156ZM18.7138 25.356C18.9538 25.356 19.1858 25.32 19.4098 25.248C19.6338 25.168 19.8298 25.036 19.9978 24.852C20.1658 24.66 20.3018 24.404 20.4058 24.084C20.5098 23.756 20.5618 23.348 20.5618 22.86V22.62C20.5618 22.148 20.5098 21.76 20.4058 21.456C20.3018 21.152 20.1658 20.912 19.9978 20.736C19.8298 20.552 19.6338 20.424 19.4098 20.352C19.1858 20.28 18.9538 20.244 18.7138 20.244C18.4738 20.244 18.2418 20.28 18.0178 20.352C17.7938 20.424 17.5978 20.552 17.4298 20.736C17.2618 20.912 17.1258 21.152 17.0218 21.456C16.9178 21.76 16.8658 22.148 16.8658 22.62V22.86C16.8658 23.348 16.9178 23.756 17.0218 24.084C17.1258 24.404 17.2618 24.66 17.4298 24.852C17.5978 25.036 17.7938 25.168 18.0178 25.248C18.2418 25.32 18.4738 25.356 18.7138 25.356ZM24.1681 27V18.6H28.1881C28.6841 18.6 29.1081 18.652 29.4601 18.756C29.8121 18.852 30.1041 18.996 30.3361 19.188C30.5681 19.372 30.7361 19.604 30.8401 19.884C30.9521 20.164 31.0081 20.484 31.0081 20.844C31.0081 21.06 30.9801 21.264 30.9241 21.456C30.8681 21.64 30.7841 21.808 30.6721 21.96C30.5681 22.104 30.4361 22.232 30.2761 22.344C30.1241 22.456 29.9521 22.548 29.7601 22.62C30.2641 22.732 30.6561 22.956 30.9361 23.292C31.2241 23.628 31.3681 24.072 31.3681 24.624C31.3681 24.992 31.3081 25.324 31.1881 25.62C31.0761 25.916 30.8961 26.168 30.6481 26.376C30.4001 26.576 30.0801 26.732 29.6881 26.844C29.3041 26.948 28.8441 27 28.3081 27H24.1681ZM26.3281 25.344H27.8281C28.0921 25.344 28.3121 25.324 28.4881 25.284C28.6641 25.244 28.8041 25.188 28.9081 25.116C29.0201 25.036 29.0961 24.936 29.1361 24.816C29.1841 24.696 29.2081 24.552 29.2081 24.384C29.2081 24.216 29.1841 24.072 29.1361 23.952C29.0881 23.832 29.0081 23.732 28.8961 23.652C28.7921 23.572 28.6481 23.512 28.4641 23.472C28.2881 23.432 28.0681 23.412 27.8041 23.412H26.3281V25.344ZM26.3281 21.948H27.6601C27.8921 21.948 28.0841 21.928 28.2361 21.888C28.3881 21.848 28.5081 21.792 28.5961 21.72C28.6921 21.648 28.7561 21.56 28.7881 21.456C28.8281 21.352 28.8481 21.232 28.8481 21.096C28.8481 20.952 28.8281 20.828 28.7881 20.724C28.7561 20.62 28.6921 20.536 28.5961 20.472C28.5081 20.4 28.3881 20.348 28.2361 20.316C28.0921 20.276 27.9041 20.256 27.6721 20.256H26.3281V21.948ZM32.6291 27V18.6H34.7891V23.64L38.0891 18.6H40.0691V27H37.9091V21.96L34.6091 27H32.6291ZM41.7463 27V18.6H43.9062V23.64L47.2063 18.6H49.1863V27H47.0263V21.96L43.7263 27H41.7463ZM45.4663 18.12C45.0423 18.12 44.6783 18.076 44.3743 17.988C44.0703 17.9 43.8223 17.772 43.6303 17.604C43.4383 17.436 43.2943 17.224 43.1983 16.968C43.1103 16.712 43.0663 16.416 43.0663 16.08H44.8183C44.8183 16.416 44.8663 16.64 44.9623 16.752C45.0663 16.864 45.2343 16.92 45.4663 16.92C45.6983 16.92 45.8623 16.864 45.9583 16.752C46.0623 16.64 46.1143 16.416 46.1143 16.08H47.8663C47.8663 16.416 47.8183 16.712 47.7223 16.968C47.6343 17.224 47.4943 17.436 47.3023 17.604C47.1103 17.772 46.8623 17.9 46.5583 17.988C46.2543 18.076 45.8903 18.12 45.4663 18.12Z" fill="white"/>
<defs>
<radialGradient id="paint0_radial_406_4310" cx="0" cy="0" r="1" gradientUnits="userSpaceOnUse" gradientTransform="translate(12.0312 5.625) rotate(74.1199) scale(56.5325 52.559)">
<stop stop-color="#DA2828"/>
<stop offset="1" stop-color="#FF5F5F"/>
</radialGradient>
</defs>
</svg>
