<svg width="55" height="60" viewBox="0 0 55 60" fill="none" xmlns="http://www.w3.org/2000/svg">
<path d="M0 60V0H55V60L27.9365 44.8862L0 60Z" fill="#0070C0"/>
<path d="M9.37906 34V25.6H15.5591V27.376H11.5391V28.624H12.9191C13.5031 28.624 14.0071 28.688 14.4311 28.816C14.8631 28.936 15.2191 29.112 15.4991 29.344C15.7871 29.568 15.9991 29.844 16.1351 30.172C16.2711 30.492 16.3391 30.852 16.3391 31.252C16.3391 31.684 16.2711 32.072 16.1351 32.416C15.9991 32.752 15.7871 33.04 15.4991 33.28C15.2191 33.512 14.8631 33.692 14.4311 33.82C14.0071 33.94 13.5031 34 12.9191 34H9.37906ZM11.5391 32.224H12.6791C12.9431 32.224 13.1631 32.204 13.3391 32.164C13.5231 32.116 13.6711 32.052 13.7831 31.972C13.8951 31.884 13.9751 31.78 14.0231 31.66C14.0791 31.54 14.1071 31.404 14.1071 31.252C14.1071 31.1 14.0791 30.964 14.0231 30.844C13.9751 30.724 13.8951 30.624 13.7831 30.544C13.6711 30.456 13.5231 30.392 13.3391 30.352C13.1631 30.304 12.9431 30.28 12.6791 30.28H11.5391V32.224ZM16.5809 34L19.6409 25.6H21.8009L24.8609 34H22.5809L22.0049 32.392H19.1969L18.6209 34H16.5809ZM19.8089 30.736H21.3929L20.6009 28.24L19.8089 30.736ZM25.9963 34.156C25.9642 34.156 25.9243 34.156 25.8763 34.156C25.8283 34.156 25.7763 34.152 25.7203 34.144C25.6723 34.144 25.6243 34.14 25.5763 34.132C25.5283 34.132 25.4883 34.128 25.4563 34.12V32.224C25.4723 32.232 25.4963 32.236 25.5283 32.236C25.5603 32.236 25.5963 32.236 25.6363 32.236C25.7643 32.236 25.8803 32.224 25.9843 32.2C26.0883 32.168 26.1803 32.108 26.2603 32.02C26.3403 31.924 26.4083 31.788 26.4643 31.612C26.5283 31.436 26.5763 31.2 26.6083 30.904C26.6483 30.608 26.6763 30.244 26.6923 29.812C26.7083 29.372 26.7163 28.848 26.7163 28.24V25.6H33.0763V34H30.9163V27.364H28.7323V28.48C28.7323 29.312 28.7043 30.032 28.6483 30.64C28.5923 31.24 28.5083 31.752 28.3963 32.176C28.2843 32.592 28.1483 32.932 27.9883 33.196C27.8363 33.452 27.6563 33.652 27.4483 33.796C27.2483 33.94 27.0243 34.036 26.7763 34.084C26.5363 34.132 26.2763 34.156 25.9963 34.156ZM34.8819 34V25.6H37.0419V34H34.8819ZM38.84 34V25.6H42.86C43.356 25.6 43.78 25.652 44.132 25.756C44.484 25.852 44.776 25.996 45.008 26.188C45.24 26.372 45.408 26.604 45.512 26.884C45.624 27.164 45.68 27.484 45.68 27.844C45.68 28.06 45.652 28.264 45.596 28.456C45.54 28.64 45.456 28.808 45.344 28.96C45.24 29.104 45.108 29.232 44.948 29.344C44.796 29.456 44.624 29.548 44.432 29.62C44.936 29.732 45.328 29.956 45.608 30.292C45.896 30.628 46.04 31.072 46.04 31.624C46.04 31.992 45.98 32.324 45.86 32.62C45.748 32.916 45.568 33.168 45.32 33.376C45.072 33.576 44.752 33.732 44.36 33.844C43.976 33.948 43.516 34 42.98 34H38.84ZM41 32.344H42.5C42.764 32.344 42.984 32.324 43.16 32.284C43.336 32.244 43.476 32.188 43.58 32.116C43.692 32.036 43.768 31.936 43.808 31.816C43.856 31.696 43.88 31.552 43.88 31.384C43.88 31.216 43.856 31.072 43.808 30.952C43.76 30.832 43.68 30.732 43.568 30.652C43.464 30.572 43.32 30.512 43.136 30.472C42.96 30.432 42.74 30.412 42.476 30.412H41V32.344ZM41 28.948H42.332C42.564 28.948 42.756 28.928 42.908 28.888C43.06 28.848 43.18 28.792 43.268 28.72C43.364 28.648 43.428 28.56 43.46 28.456C43.5 28.352 43.52 28.232 43.52 28.096C43.52 27.952 43.5 27.828 43.46 27.724C43.428 27.62 43.364 27.536 43.268 27.472C43.18 27.4 43.06 27.348 42.908 27.316C42.764 27.276 42.576 27.256 42.344 27.256H41V28.948Z" fill="white"/>
<path d="M20.0178 19L23.6658 10.152H18.5778V7.8H26.5778V9.832L23.0578 19H20.0178ZM31.8566 19.208C31.0886 19.208 30.4432 19.112 29.9206 18.92C29.3979 18.7173 28.9712 18.4507 28.6406 18.12C28.3206 17.7893 28.0859 17.4053 27.9366 16.968C27.7872 16.52 27.7072 16.0507 27.6966 15.56H30.4806C30.4912 15.7733 30.5286 15.9707 30.5926 16.152C30.6672 16.3227 30.7632 16.472 30.8806 16.6C30.9979 16.7173 31.1366 16.8133 31.2966 16.888C31.4672 16.952 31.6539 16.984 31.8566 16.984C32.3686 16.984 32.7312 16.8293 32.9446 16.52C33.1579 16.2 33.2646 15.752 33.2646 15.176C33.2646 14.8667 33.2272 14.6107 33.1526 14.408C33.0886 14.1947 32.9926 14.024 32.8646 13.896C32.7366 13.768 32.5872 13.6773 32.4166 13.624C32.2459 13.5707 32.0592 13.544 31.8566 13.544C31.5792 13.544 31.3286 13.6027 31.1046 13.72C30.8806 13.8267 30.6939 13.9867 30.5446 14.2H27.9366V7.8H35.5526V10.152H30.7046V11.72C30.9286 11.5493 31.1899 11.4267 31.4886 11.352C31.7979 11.2667 32.1499 11.224 32.5446 11.224C33.0779 11.224 33.5686 11.3093 34.0166 11.48C34.4646 11.64 34.8486 11.8853 35.1686 12.216C35.4886 12.536 35.7339 12.9413 35.9046 13.432C36.0859 13.9227 36.1766 14.4933 36.1766 15.144C36.1766 15.7627 36.0752 16.3227 35.8726 16.824C35.6699 17.3253 35.3819 17.752 35.0086 18.104C34.6352 18.456 34.1819 18.728 33.6486 18.92C33.1152 19.112 32.5179 19.208 31.8566 19.208Z" fill="white"/>
</svg>
