<svg width="160" height="50" viewBox="0 0 160 50" fill="none" xmlns="http://www.w3.org/2000/svg">
<path d="M135 9L124.643 22.4044V32.5022H121.124V22.4044L110.767 9H114.837L122.884 19.4711L130.931 9M108.256 38.9556V40.9822H107.743V36.36H108.403C109.521 36.36 110.089 36.7867 110.089 37.64C110.089 37.9956 109.979 38.2978 109.778 38.5289C109.576 38.76 109.283 38.8844 108.934 38.92L110.401 41H109.778L108.384 38.9733H108.256V38.9556ZM108.256 36.84V38.4933H108.421C108.769 38.4933 109.044 38.44 109.228 38.3511C109.466 38.2267 109.594 37.9956 109.594 37.6756C109.594 37.3378 109.466 37.0889 109.246 36.9644C109.081 36.8756 108.806 36.84 108.421 36.84H108.256ZM70.1291 38.9556V40.9822H69.6159V36.36H70.2758C71.3939 36.36 71.9622 36.7867 71.9622 37.64C71.9622 37.9956 71.8522 38.2978 71.6506 38.5289C71.4489 38.76 71.1556 38.8844 70.8074 38.92L72.2738 41H71.6506L70.2575 38.9733H70.1291V38.9556ZM70.1291 36.84V38.4933H70.2941C70.6424 38.4933 70.9174 38.44 71.1007 38.3511C71.3389 38.2267 71.4673 37.9956 71.4673 37.6756C71.4673 37.3378 71.3573 37.0889 71.119 36.9644C70.954 36.8756 70.6791 36.84 70.2941 36.84H70.1291ZM86.3331 36.84V40.9822H85.8199V36.84H84.7017V36.36H87.4513V36.84H86.3331ZM37.043 36.36V40.5022H38.3078V40.9822H36.5297V36.36H37.043ZM115.46 40.9822V36.36H117.99V36.84H115.973V38.2089H117.843V38.6889H115.973V40.5022H117.99V40.9822H115.46ZM125.138 36.9289L124.735 37.1956C124.552 36.8578 124.277 36.6978 123.947 36.6978C123.745 36.6978 123.562 36.7689 123.415 36.8933C123.269 37.0356 123.195 37.1956 123.195 37.4089L123.434 37.8711C123.525 37.9422 123.69 38.0311 123.91 38.1378L124.222 38.28C124.588 38.44 124.845 38.6 124.992 38.76C125.212 38.9733 125.322 39.2578 125.322 39.5778C125.322 39.9689 125.175 40.3067 124.9 40.5911C124.625 40.8578 124.277 41 123.874 41C123.507 41 123.195 40.8933 122.939 40.68C122.682 40.4667 122.517 40.1822 122.444 39.8089L122.939 39.6667C122.975 39.8978 123.067 40.1111 123.25 40.2711C123.415 40.4311 123.617 40.52 123.874 40.52C124.13 40.52 124.35 40.4311 124.533 40.2533C124.717 40.0756 124.808 39.8622 124.808 39.6133C124.808 39.3644 124.717 39.1689 124.552 39.0267C124.442 38.9378 124.24 38.8133 123.965 38.7067L123.69 38.5822C123.379 38.44 123.14 38.2978 122.994 38.1556C122.792 37.96 122.7 37.7111 122.7 37.4089C122.7 37.0711 122.829 36.7689 123.085 36.5556C123.324 36.3422 123.617 36.2356 123.984 36.2356C124.497 36.2178 124.9 36.4489 125.138 36.9289ZM93.9402 36.2178C94.6184 36.2178 95.1866 36.4489 95.6632 36.9111C96.1398 37.3733 96.3781 37.9422 96.3781 38.6C96.3781 39.2578 96.1398 39.8267 95.6632 40.2889C95.1866 40.7511 94.6001 40.9822 93.9402 40.9822C93.262 40.9822 92.6937 40.7511 92.2171 40.2889C91.7405 39.8267 91.5023 39.2578 91.5023 38.6C91.5023 37.9422 91.7405 37.3733 92.2171 36.9111C92.6937 36.4489 93.2803 36.2178 93.9402 36.2178ZM93.9402 36.6978C93.4086 36.6978 92.9503 36.8756 92.5654 37.2489C92.1988 37.6222 91.9972 38.0667 91.9972 38.6C91.9972 39.1156 92.1805 39.5778 92.5654 39.9511C92.932 40.3244 93.3903 40.52 93.9219 40.52C94.4534 40.52 94.9117 40.3244 95.2783 39.9511C95.6449 39.5778 95.8465 39.1333 95.8465 38.6C95.8465 38.0844 95.6632 37.6222 95.2783 37.2489C94.93 36.8756 94.4901 36.6978 93.9402 36.6978ZM62.5587 36.2178C63.237 36.2178 63.8052 36.4489 64.2818 36.9111C64.7584 37.3733 64.9967 37.9422 64.9967 38.6C64.9967 39.2578 64.7584 39.8267 64.2818 40.2889C63.8052 40.7511 63.2186 40.9822 62.5587 40.9822C61.8805 40.9822 61.3123 40.7511 60.8357 40.2889C60.3591 39.8267 60.1208 39.2578 60.1208 38.6C60.1208 37.9422 60.3591 37.3733 60.8357 36.9111C61.3123 36.4489 61.8805 36.2178 62.5587 36.2178ZM62.5587 36.6978C62.0272 36.6978 61.5689 36.8756 61.2023 37.2489C60.8357 37.6222 60.6341 38.0667 60.6341 38.6C60.6341 39.1156 60.8174 39.5778 61.2023 39.9511C61.5872 40.3244 62.0272 40.52 62.5587 40.52C63.0903 40.52 63.5486 40.3244 63.9152 39.9511C64.3001 39.5778 64.4834 39.1333 64.4834 38.6C64.4834 38.0844 64.3001 37.6222 63.9152 37.2489C63.5486 36.8756 63.0903 36.6978 62.5587 36.6978ZM52.4038 36.36H53.1553C54.1818 36.36 54.6951 36.7867 54.6951 37.6044C54.6951 38.0133 54.5484 38.3156 54.2368 38.5111C54.5117 38.5822 54.7134 38.7244 54.8784 38.9378C55.0433 39.1511 55.0617 39.4178 55.0617 39.7022C55.0617 40.1467 54.8967 40.4667 54.5851 40.6978C54.2918 40.8933 53.9618 41 53.4669 41H52.4038V36.36ZM52.8437 36.8044V38.2978H53.1003C53.4486 38.2978 53.7052 38.2622 53.8519 38.1733C54.0718 38.0489 54.1635 37.9244 54.1635 37.6044C54.1635 37.2844 54.0718 37.0356 53.8702 36.9289C53.7235 36.84 53.4669 36.8044 53.1003 36.8044H52.8437ZM52.8437 38.7422V40.5378H53.4303C54.2185 40.5378 54.5667 40.2178 54.5667 39.6489C54.5667 39.0978 54.2001 38.7422 53.3753 38.7422H52.8437ZM74.84 29.3556C77.2963 29.3556 79.5509 28.5733 81.3106 27.2578V30.9733C79.4043 31.9511 77.2046 32.5022 74.84 32.5022C67.5812 32.5022 61.7155 27.24 61.7155 20.7511C61.7155 14.2622 67.5996 9 74.84 9C77.1863 9 79.4043 9.55111 81.3106 10.5289V14.2444C79.5509 12.9289 77.2963 12.1467 74.84 12.1467C69.2493 12.1467 65.18 15.7556 65.18 20.7511C65.1616 25.7467 69.2493 29.3556 74.84 29.3556ZM44.0268 9H47.9678L36.4931 32.5022L25 9H28.941L36.5114 24.9111L44.0268 9ZM53.2653 9H57.078V32.5022H53.2653V9ZM101.511 36.36H102.097V40.9822H101.511V36.36ZM78.726 37.2489L77.9562 39.1867H79.4959L78.726 37.2489ZM76.6364 40.9822L78.7077 36.0578L80.779 40.9822H80.1925L79.6609 39.6489H77.7545L77.223 40.9822H76.6364ZM45.1266 37.2489L44.3568 39.1867H45.8965L45.1266 37.2489ZM43.0553 40.9822L45.1266 36.0578L47.198 40.9822H46.6114L46.0798 39.6489H44.1918L43.6602 40.9822H43.0553ZM103.674 9H107.468V32.5022H103.674V21.9778H90.3108V32.5022H86.4981V9H90.3108V19.0622H103.674V9Z" fill="white"/>
</svg>
