<svg width="160" height="50" viewBox="0 0 160 50" fill="none" xmlns="http://www.w3.org/2000/svg">
<path d="M81.445 34.7592C84.437 34.7592 86.698 32.9678 86.698 30.5791V29.163C85.202 28.7365 83.655 28.5318 82.108 28.5318C79.252 28.5318 77.535 29.7261 77.535 31.7052C77.535 33.8038 79.558 34.7592 81.445 34.7592ZM82.261 19.9498C86.868 19.9498 89.401 22.3213 89.401 26.6379V36.7213H86.664V34.6227C85.593 35.8171 83.791 37.0626 80.952 37.0626C77.926 37.0626 74.662 35.4076 74.662 31.8076C74.662 28.3953 77.348 26.3649 81.836 26.3649C83.961 26.3649 85.423 26.655 86.647 26.9962V26.6891C86.647 24.0104 85.032 22.509 82.091 22.4749H77.161V19.9498H82.261ZM76.039 22.8673H75.648C71.84 22.8673 69.375 25.6995 69.375 30.0844V36.7213H66.57V20.1545H69.392V23.7374C70.803 21.2123 73.166 19.7621 75.852 19.8815H76.039V22.8673ZM52.409 27.3545H62.473C62.184 24.8464 60.756 22.236 57.492 22.236C54.84 22.236 52.783 24.3346 52.409 27.3545ZM57.543 19.8133C62.218 19.8133 65.346 23.345 65.346 28.5829C65.346 28.8389 65.346 29.0948 65.312 29.3507L65.295 29.5213H52.409C52.783 32.5754 54.976 34.6057 57.917 34.6057C59.872 34.6057 61.453 33.9062 62.915 32.3877L63.051 32.2512L64.853 33.855L64.717 34.0085C62.779 36.1583 60.654 37.1137 57.849 37.1137C53.089 37.1137 49.519 33.3943 49.519 28.4806C49.519 23.5327 52.97 19.8133 57.543 19.8133ZM47.326 31.3128L47.462 31.1934L49.383 33.0531L49.247 33.1896C47.326 35.1175 44.759 37.0967 40.271 37.0967C33.845 37.0967 29 32.1488 29 25.6142C29 19.0284 33.896 14.0635 40.373 14.0635C44.742 14.0635 47.173 15.7526 49.128 17.5953L49.264 17.7318L47.292 19.8303L47.156 19.6938C44.963 17.6294 42.923 16.7422 40.356 16.7422C35.596 16.7422 32.009 20.5299 32.009 25.563C32.009 30.6133 35.596 34.4351 40.356 34.4351C43.433 34.418 45.371 33.1725 47.326 31.3128ZM90.676 42.5393C90.285 42.5393 89.996 42.454 89.741 42.1981L90.013 41.9422C90.2 42.1299 90.421 42.1981 90.693 42.1981C91.033 42.1981 91.237 42.0446 91.237 41.8057L91.135 41.5327L90.846 41.4303L90.54 41.3791L90.047 41.1744L89.86 40.6796C89.86 40.219 90.183 39.9118 90.744 39.9118C91.101 39.9118 91.339 39.9972 91.56 40.2019L91.305 40.4578C91.135 40.3043 90.948 40.2531 90.727 40.2531C90.421 40.2531 90.251 40.4237 90.251 40.6626L90.353 40.9014L90.642 41.0209L90.931 41.072C91.169 41.1062 91.305 41.1573 91.424 41.2597L91.645 41.7886C91.628 42.2493 91.237 42.5393 90.676 42.5393ZM88.789 40.2701V42.5223H88.398V40.2701H87.667V39.9118H89.52V40.2701H88.789ZM86.426 42.5393C86.035 42.5393 85.746 42.454 85.491 42.1981L85.763 41.9422C85.95 42.1299 86.171 42.1981 86.426 42.1981C86.766 42.1981 86.97 42.0446 86.97 41.8057L86.868 41.5327L86.579 41.4303L86.273 41.3791L85.78 41.1744L85.593 40.6796C85.593 40.219 85.916 39.9118 86.477 39.9118C86.834 39.9118 87.072 39.9972 87.293 40.2019L87.038 40.4578C86.868 40.3043 86.681 40.2531 86.46 40.2531C86.154 40.2531 85.984 40.4237 85.984 40.6626L86.086 40.9014L86.375 41.0209L86.681 41.072C86.919 41.1062 87.055 41.1573 87.174 41.2597L87.395 41.7886C87.361 42.2493 86.97 42.5393 86.426 42.5393ZM84.641 39.9118H85.049V42.5223H84.641V39.9118ZM83.808 42.2322C83.417 42.6246 82.788 42.6246 82.397 42.2493C82.142 41.9934 82.142 41.7033 82.142 41.2085C82.142 40.7137 82.142 40.4237 82.397 40.1678C82.584 39.9801 82.822 39.8777 83.094 39.8948C83.655 39.8948 83.978 40.2531 84.046 40.6967H83.638C83.57 40.4066 83.383 40.236 83.077 40.236L82.686 40.3896C82.55 40.5261 82.533 40.6796 82.533 41.1915C82.533 41.7204 82.567 41.8739 82.686 42.0104L83.077 42.164L83.502 41.9763L83.638 41.5668V41.4133H83.077V41.072H84.029V41.4645C84.029 41.8398 83.978 42.0446 83.808 42.2322ZM81.071 40.4066L80.68 40.2531L80.289 40.4066C80.153 40.5431 80.136 40.6967 80.136 41.2256C80.136 41.7545 80.17 41.891 80.289 42.0275L80.68 42.181L81.071 42.0275C81.207 41.891 81.224 41.7374 81.224 41.2256C81.224 40.6796 81.207 40.5431 81.071 40.4066ZM81.377 42.2493C80.986 42.6246 80.374 42.6246 79.983 42.2493C79.728 41.9934 79.728 41.7033 79.728 41.2085C79.728 40.7137 79.728 40.4237 79.983 40.1678C80.374 39.7924 80.986 39.7924 81.377 40.1678C81.632 40.4237 81.632 40.7137 81.632 41.2085C81.632 41.7033 81.632 41.9934 81.377 42.2493ZM77.807 42.5052V39.8948H78.215V42.1469H79.49V42.5052H77.807ZM76.651 40.4066C76.43 40.2019 76.09 40.2019 75.869 40.4066C75.75 40.5431 75.716 40.6967 75.716 41.2256C75.716 41.7545 75.75 41.891 75.869 42.0275L76.26 42.181L76.651 42.0275C76.787 41.891 76.804 41.7374 76.804 41.2256C76.804 40.6796 76.787 40.5431 76.651 40.4066ZM76.957 42.2493C76.566 42.6246 75.954 42.6246 75.58 42.2493C75.325 41.9934 75.325 41.7033 75.325 41.2085C75.325 40.7137 75.325 40.4237 75.58 40.1678C75.971 39.7924 76.583 39.7924 76.957 40.1678C77.212 40.4237 77.212 40.7137 77.212 41.2085C77.212 41.7033 77.212 41.9934 76.957 42.2493ZM74.305 40.2701V42.5223H73.897V40.2701H73.183V39.9118H75.036V40.2701H74.305ZM72.146 40.4919L71.738 41.6521H72.554L72.146 40.4919ZM72.826 42.5052L72.639 41.9763H71.602L71.415 42.5052H70.99L71.959 39.8948H72.282L73.251 42.5052H72.826ZM70.225 42.5052V40.7649L69.613 42.0275H69.324L68.695 40.7649V42.5052H68.287V39.8948H68.695L69.46 41.5156L70.208 39.8948H70.599V42.5052H70.225ZM66.876 40.2701H66.281V41.0891H66.876C67.148 41.0891 67.318 40.9355 67.318 40.6796C67.318 40.4237 67.131 40.2701 66.876 40.2701ZM67.335 42.5052L66.774 41.4133H66.281V42.5052H65.873V39.8948H66.893C67.386 39.8948 67.709 40.219 67.709 40.6626C67.726 40.9867 67.505 41.2768 67.182 41.3621L67.777 42.5052H67.335ZM63.646 42.5052V39.8948H65.329V40.2531H64.054V41.0209H65.142V41.3791H64.054V42.164H65.329V42.5223L63.646 42.5052ZM62.524 40.4408L62.065 40.2701H61.572V42.164H62.065L62.524 41.9934C62.66 41.8398 62.66 41.5668 62.66 41.2085C62.66 40.8332 62.66 40.5943 62.524 40.4408ZM62.796 42.2663C62.626 42.437 62.388 42.5052 62.116 42.5052H61.181V39.8948H62.116C62.388 39.8948 62.643 39.9801 62.796 40.1336C63.085 40.4066 63.068 40.799 63.068 41.1744C63.068 41.5668 63.085 41.9763 62.796 42.2663ZM59.192 42.5052V41.3621H58.138V42.5052H57.73V39.8948H58.138V41.0038H59.209V39.8948H59.617V42.5052H59.192ZM56.54 40.2701V42.5223H56.149V40.2701H55.418V39.9118H57.271V40.2701H56.54ZM54.568 39.9118H54.976V42.5223H54.568V39.9118ZM53.48 42.5052H53.123L52.596 40.6796L52.069 42.5052H51.729L51.049 39.8948H51.474L51.916 41.7716L52.443 39.9118H52.766L53.293 41.7716L53.752 39.9118H54.177L53.48 42.5052ZM49.332 40.4408L48.873 40.2701H48.38V42.164H48.873L49.332 41.9934C49.468 41.8398 49.468 41.5668 49.468 41.2085C49.468 40.8332 49.468 40.5943 49.332 40.4408ZM49.604 42.2663C49.434 42.437 49.196 42.5052 48.924 42.5052H47.989V39.8948H48.924C49.196 39.8948 49.451 39.9801 49.604 40.1336C49.893 40.4066 49.876 40.799 49.876 41.1744C49.876 41.5668 49.893 41.9763 49.604 42.2663ZM45.745 42.5052V39.8948H47.428V40.2531H46.153V41.0209H47.241V41.3791H46.153V42.164H47.428V42.5223L45.745 42.5052ZM44.419 40.2701H43.824V41.1403H44.419C44.708 41.1403 44.895 40.9867 44.895 40.7137C44.895 40.4237 44.708 40.2701 44.419 40.2701ZM44.453 41.4815H43.841V42.5052H43.433V39.8948H44.453C44.98 39.8948 45.32 40.236 45.32 40.6796C45.303 41.1573 44.98 41.4815 44.453 41.4815ZM42.277 40.4066C42.056 40.2019 41.716 40.2019 41.495 40.4066C41.359 40.5431 41.342 40.6967 41.342 41.2256C41.342 41.7545 41.376 41.891 41.495 42.0275L41.886 42.181L42.277 42.0275C42.396 41.891 42.43 41.7374 42.43 41.2256C42.43 40.6796 42.396 40.5431 42.277 40.4066ZM42.566 42.2493C42.379 42.437 42.141 42.5393 41.869 42.5223C41.614 42.5223 41.359 42.4199 41.172 42.2493C40.917 41.9934 40.917 41.7033 40.917 41.2085C40.917 40.7137 40.917 40.4237 41.172 40.1678C41.359 39.9801 41.597 39.8777 41.869 39.8948C42.124 39.8948 42.379 39.9972 42.566 40.1678C42.821 40.4237 42.821 40.7137 42.821 41.2085C42.821 41.7033 42.838 41.9934 42.566 42.2493ZM38.996 42.5052V39.8948H39.404V42.1469H40.679V42.5052H38.996ZM36.769 42.5052V39.8948H38.452V40.2531H37.177V41.0209H38.265V41.3791H37.177V42.164H38.452V42.5223L36.769 42.5052ZM35.528 42.5052H35.222L34.355 39.8948H34.763L35.375 41.7886L35.987 39.8948H36.412L35.528 42.5052ZM32.434 42.5052V39.8948H34.117V40.2531H32.842V41.0209H33.93V41.3791H32.842V42.164H34.117V42.5223L32.434 42.5052ZM31.312 40.4408L30.853 40.2701H30.36V42.164H30.853L31.312 41.9934C31.448 41.8398 31.448 41.5668 31.448 41.2085C31.465 40.8332 31.448 40.5943 31.312 40.4408ZM31.601 42.2663C31.431 42.437 31.193 42.5052 30.921 42.5052H29.986V39.8948H30.921C31.193 39.8948 31.448 39.9801 31.601 40.1336C31.89 40.4066 31.873 40.799 31.873 41.1744C31.856 41.5668 31.89 41.9763 31.601 42.2663Z" fill="white"/>
<path d="M108.322 14.4389L100.57 32.9848L92.852 14.4389H89.639L99.295 36.8749H101.76L111.433 14.4389H108.322ZM120.307 27.3545H110.243C110.634 24.3346 112.691 22.236 115.326 22.236C118.573 22.236 120.018 24.8464 120.307 27.3545ZM115.377 19.8133C110.804 19.8133 107.353 23.5327 107.353 28.4464C107.353 33.3772 110.94 37.0796 115.683 37.0796C118.505 37.0796 120.613 36.1242 122.551 33.9744L122.687 33.8209L120.885 32.2171L120.749 32.3536C119.287 33.872 117.706 34.5716 115.751 34.5716C112.81 34.5716 110.617 32.5412 110.226 29.4872H123.112L123.129 29.3166C123.146 29.0607 123.163 28.8047 123.163 28.5488C123.18 23.345 120.052 19.8133 115.377 19.8133ZM131 7V43H99.465L83.978 7H131Z" fill="white"/>
</svg>
