<svg width="20" height="20" viewBox="0 0 20 20" fill="none" xmlns="http://www.w3.org/2000/svg">
<rect width="20" height="20" fill="white"/>
<path d="M9.99996 1.66675C12.2641 1.66675 12.5466 1.67508 13.435 1.71675C14.3225 1.75841 14.9266 1.89758 15.4583 2.10425C16.0083 2.31591 16.4716 2.60258 16.935 3.06508C17.3587 3.48166 17.6866 3.98557 17.8958 4.54175C18.1016 5.07258 18.2416 5.67758 18.2833 6.56508C18.3225 7.45341 18.3333 7.73592 18.3333 10.0001C18.3333 12.2642 18.325 12.5467 18.2833 13.4351C18.2416 14.3226 18.1016 14.9267 17.8958 15.4584C17.6872 16.0149 17.3592 16.5189 16.935 16.9351C16.5183 17.3587 16.0144 17.6865 15.4583 17.8959C14.9275 18.1017 14.3225 18.2417 13.435 18.2834C12.5466 18.3226 12.2641 18.3334 9.99996 18.3334C7.73579 18.3334 7.45329 18.3251 6.56496 18.2834C5.67746 18.2417 5.07329 18.1017 4.54163 17.8959C3.98523 17.6871 3.48123 17.3592 3.06496 16.9351C2.64113 16.5186 2.31324 16.0146 2.10413 15.4584C1.89746 14.9276 1.75829 14.3226 1.71663 13.4351C1.67746 12.5467 1.66663 12.2642 1.66663 10.0001C1.66663 7.73592 1.67496 7.45341 1.71663 6.56508C1.75829 5.67675 1.89746 5.07341 2.10413 4.54175C2.31266 3.98523 2.64063 3.48118 3.06496 3.06508C3.48135 2.64111 3.98532 2.31319 4.54163 2.10425C5.07329 1.89758 5.67663 1.75841 6.56496 1.71675C7.45329 1.67758 7.73579 1.66675 9.99996 1.66675ZM9.99996 5.83342C8.89489 5.83342 7.83508 6.2724 7.05368 7.0538C6.27228 7.83521 5.83329 8.89501 5.83329 10.0001C5.83329 11.1052 6.27228 12.165 7.05368 12.9464C7.83508 13.7278 8.89489 14.1667 9.99996 14.1667C11.105 14.1667 12.1648 13.7278 12.9462 12.9464C13.7276 12.165 14.1666 11.1052 14.1666 10.0001C14.1666 8.89501 13.7276 7.83521 12.9462 7.0538C12.1648 6.2724 11.105 5.83342 9.99996 5.83342ZM15.4166 5.62508C15.4166 5.34881 15.3069 5.08386 15.1115 4.88851C14.9162 4.69316 14.6512 4.58341 14.375 4.58341C14.0987 4.58341 13.8337 4.69316 13.6384 4.88851C13.443 5.08386 13.3333 5.34881 13.3333 5.62508C13.3333 5.90135 13.443 6.1663 13.6384 6.36165C13.8337 6.557 14.0987 6.66675 14.375 6.66675C14.6512 6.66675 14.9162 6.557 15.1115 6.36165C15.3069 6.1663 15.4166 5.90135 15.4166 5.62508ZM9.99996 7.50008C10.663 7.50008 11.2989 7.76347 11.7677 8.23231C12.2366 8.70116 12.5 9.33704 12.5 10.0001C12.5 10.6631 12.2366 11.299 11.7677 11.7678C11.2989 12.2367 10.663 12.5001 9.99996 12.5001C9.33692 12.5001 8.70103 12.2367 8.23219 11.7678C7.76335 11.299 7.49996 10.6631 7.49996 10.0001C7.49996 9.33704 7.76335 8.70116 8.23219 8.23231C8.70103 7.76347 9.33692 7.50008 9.99996 7.50008Z" fill="#0070C0"/>
</svg>
