<svg width="40" height="40" viewBox="0 0 40 40" fill="none" xmlns="http://www.w3.org/2000/svg">
<rect width="40" height="40" rx="20" fill="#0070C0"/>
<path fill-rule="evenodd" clip-rule="evenodd" d="M13 10H27C27.2652 10 27.5196 10.1054 27.7071 10.2929C27.8946 10.4804 28 10.7348 28 11V29C28 29.2652 27.8946 29.5196 27.7071 29.7071C27.5196 29.8946 27.2652 30 27 30H13C12.7348 30 12.4804 29.8946 12.2929 29.7071C12.1054 29.5196 12 29.2652 12 29V11C12 10.7348 12.1054 10.4804 12.2929 10.2929C12.4804 10.1054 12.7348 10 13 10ZM24.2071 14.7071C24.5976 14.3166 24.5976 13.6834 24.2071 13.2929C23.8166 12.9024 23.1834 12.9024 22.7929 13.2929L19.5 16.5858L18.2071 15.2929C17.8166 14.9024 17.1834 14.9024 16.7929 15.2929C16.4024 15.6834 16.4024 16.3166 16.7929 16.7071L18.7929 18.7071C19.1834 19.0976 19.8166 19.0976 20.2071 18.7071L24.2071 14.7071ZM17 21.5C16.4477 21.5 16 21.9477 16 22.5C16 23.0523 16.4477 23.5 17 23.5H24C24.5523 23.5 25 23.0523 25 22.5C25 21.9477 24.5523 21.5 24 21.5H17ZM17 24.5C16.4477 24.5 16 24.9477 16 25.5C16 26.0523 16.4477 26.5 17 26.5H20.5C21.0523 26.5 21.5 26.0523 21.5 25.5C21.5 24.9477 21.0523 24.5 20.5 24.5H17Z" fill="white"/>
</svg>
