<svg width="130" height="135" viewBox="0 0 130 135" fill="none" xmlns="http://www.w3.org/2000/svg">
<g filter="url(#filter0_d_401_4103)">
<rect x="25" width="80" height="80" rx="40" fill="url(#paint0_radial_401_4103)"/>
</g>
<path d="M44.6085 31.4303L46.7826 23.3165L48.5328 23.7855L47.6725 26.9962L51.1267 27.9217L51.987 24.711L53.7373 25.18L51.5632 33.2938L49.8129 32.8248L50.7353 29.3822L47.2812 28.4567L46.3588 31.8992L44.6085 31.4303ZM57.0869 34.9229C56.5769 34.7863 56.1108 34.5785 55.6886 34.2998C55.2663 34.021 54.922 33.6678 54.6556 33.2403C54.3989 32.8071 54.2357 32.3037 54.1658 31.7301C54.1056 31.1508 54.1739 30.4941 54.3706 29.76L54.4328 29.5281C54.6212 28.825 54.8842 28.2453 55.2217 27.7891C55.567 27.335 55.957 26.9922 56.3917 26.7609C56.8341 26.5316 57.3079 26.4018 57.8129 26.3714C58.318 26.3411 58.8255 26.3943 59.3355 26.531C59.8455 26.6676 60.3117 26.8753 60.7339 27.1541C61.1561 27.4329 61.4976 27.7811 61.7584 28.1989C62.0269 28.6187 62.1933 29.1105 62.2575 29.6743C62.3295 30.2402 62.2713 30.8748 62.0829 31.578L62.0208 31.8098C61.8241 32.5439 61.551 33.1457 61.2016 33.6153C60.8619 34.0792 60.4688 34.4335 60.0222 34.6783C59.5855 34.9174 59.1146 35.0521 58.6095 35.0824C58.1045 35.1127 57.5969 35.0596 57.0869 34.9229ZM57.4845 33.4393C57.7472 33.5097 58.0097 33.5344 58.2721 33.5136C58.5364 33.4851 58.7883 33.3952 59.0276 33.244C59.2689 33.085 59.4893 32.8501 59.6886 32.539C59.8956 32.2301 60.0664 31.8245 60.201 31.3222L60.2631 31.0904C60.3915 30.6113 60.4412 30.1939 60.4122 29.8383C60.391 29.4848 60.3135 29.1866 60.1798 28.9437C60.0482 28.6931 59.874 28.4932 59.6573 28.344C59.4405 28.1948 59.2007 28.085 58.938 28.0146C58.6753 27.9442 58.4127 27.9194 58.1504 27.9402C57.8881 27.9611 57.6373 28.0471 57.398 28.1983C57.1608 28.3418 56.9407 28.5603 56.7378 28.8538C56.5427 29.1493 56.3809 29.5367 56.2526 30.0158L56.1904 30.2476C56.0559 30.7499 55.9971 31.1855 56.0142 31.5545C56.039 31.9256 56.1162 32.2403 56.2457 32.4986C56.3773 32.7492 56.5505 32.953 56.7652 33.1099C56.982 33.2591 57.2217 33.3689 57.4845 33.4393ZM62.6852 36.2739L64.8593 28.1601L68.4178 29.1136C68.8969 29.242 69.2929 29.4019 69.606 29.5935C69.9269 29.7871 70.1745 30.0067 70.3489 30.2522C70.5233 30.4977 70.6245 30.7692 70.6524 31.0665C70.6902 31.3582 70.6636 31.6741 70.5725 32.0141C70.5166 32.2228 70.4367 32.4126 70.3329 32.5835C70.2312 32.7468 70.1066 32.8873 69.9591 33.0051C69.8136 33.1152 69.653 33.2047 69.4772 33.2736C69.3014 33.3424 69.1114 33.3867 68.9073 33.4066C69.3652 33.6452 69.6858 33.963 69.8693 34.3601C70.0606 34.7592 70.0847 35.2253 69.9419 35.7585C69.8487 36.1062 69.7097 36.4086 69.5249 36.6655C69.3422 36.9147 69.1041 37.1076 68.8108 37.2444C68.5174 37.3811 68.1707 37.4539 67.7708 37.4627C67.3709 37.4715 66.9121 37.4065 66.3944 37.2678L62.6852 36.2739ZM64.8051 35.3635L66.451 35.8046C66.7369 35.8812 66.9827 35.9222 67.1883 35.9276C67.396 35.9252 67.5691 35.8971 67.7078 35.8432C67.8486 35.7815 67.9597 35.6912 68.0413 35.5722C68.1229 35.4533 68.1875 35.305 68.2351 35.1272C68.2827 34.9495 68.2971 34.7877 68.2782 34.6419C68.2691 34.4903 68.219 34.3527 68.1279 34.2289C68.0369 34.1051 67.901 33.9942 67.7202 33.896C67.5394 33.7979 67.3061 33.7105 67.0202 33.6339L65.3858 33.196L64.8051 35.3635ZM65.7213 31.9442L67.1818 32.3355C67.4445 32.4059 67.6671 32.4407 67.8495 32.4399C68.0319 32.4391 68.1847 32.4096 68.308 32.3515C68.4312 32.2934 68.5277 32.2116 68.5974 32.1061C68.6748 32.0026 68.7342 31.8736 68.7756 31.719C68.817 31.5645 68.8301 31.423 68.8148 31.2947C68.8093 31.1607 68.7666 31.0416 68.6869 30.9374C68.6071 30.8332 68.4885 30.7352 68.3309 30.6432C68.1733 30.5513 67.967 30.4712 67.712 30.4029L66.2399 30.0084L65.7213 31.9442ZM70.9538 38.4895L73.1279 30.3757L74.8782 30.8447L73.4402 36.2114L78.4482 31.8013L80.0826 32.2392L77.9085 40.353L76.1582 39.884L77.5962 34.5173L72.5882 38.9274L70.9538 38.4895ZM79.9922 40.9113L82.1663 32.7975L83.9165 33.2665L82.4785 38.6332L87.4866 34.2231L89.1209 34.661L86.9468 42.7748L85.1966 42.3058L86.6346 36.9391L81.6265 41.3492L79.9922 40.9113ZM85.7771 33.2308C85.3985 33.1294 85.0804 33.0027 84.823 32.8509C84.5675 32.6914 84.3678 32.5095 84.2238 32.3053C84.0895 32.0954 84.011 31.8631 83.9881 31.6085C83.9673 31.3462 83.9993 31.0566 84.0842 30.7398L85.5563 31.1342C85.4652 31.4742 85.461 31.7216 85.5438 31.8763C85.6266 32.031 85.7955 32.1425 86.0505 32.2108C86.3055 32.2791 86.5075 32.267 86.6565 32.1744C86.8133 32.0839 86.9372 31.8687 87.0283 31.5287L88.4888 31.92C88.4039 32.2368 88.2869 32.5036 88.1377 32.7204C87.9906 32.9294 87.8025 33.0903 87.5736 33.2028C87.3545 33.3098 87.0944 33.3685 86.7934 33.3789C86.4946 33.3817 86.1558 33.3323 85.7771 33.2308ZM46.8543 48.5964L49.0284 40.4827L54.708 42.0045L54.3384 43.3839L50.409 42.331L49.8997 44.2319L53.4813 45.1916L53.1273 46.513L49.5456 45.5533L48.9741 47.6861L52.9035 48.7389L52.5339 50.1183L46.8543 48.5964ZM56.3673 51.1454L58.1501 44.4921L55.5537 43.7964L55.945 42.336L62.8997 44.1995L62.5083 45.6599L59.9119 44.9642L58.1292 51.6175L56.3673 51.1454ZM60.4869 52.2493L65.6746 44.943L67.4249 45.412L68.2529 54.3302L66.3983 53.8332L66.2174 51.9585L63.2732 51.1697L62.1792 52.7027L60.4869 52.2493ZM64.156 49.9154L66.0801 50.4309L65.8821 47.3217L64.156 49.9154ZM69.5774 54.6851L71.7515 46.5713L78.5902 48.4037L76.4161 56.5175L74.6659 56.0485L76.4486 49.3952L73.1104 48.5007L71.3276 55.154L69.5774 54.6851Z" fill="white"/>
<defs>
<filter id="filter0_d_401_4103" x="0" y="0" width="130" height="135" filterUnits="userSpaceOnUse" color-interpolation-filters="sRGB">
<feFlood flood-opacity="0" result="BackgroundImageFix"/>
<feColorMatrix in="SourceAlpha" type="matrix" values="0 0 0 0 0 0 0 0 0 0 0 0 0 0 0 0 0 0 127 0" result="hardAlpha"/>
<feMorphology radius="15" operator="erode" in="SourceAlpha" result="effect1_dropShadow_401_4103"/>
<feOffset dy="30"/>
<feGaussianBlur stdDeviation="20"/>
<feComposite in2="hardAlpha" operator="out"/>
<feColorMatrix type="matrix" values="0 0 0 0 0 0 0 0 0 0 0 0 0 0 0 0 0 0 0.5 0"/>
<feBlend mode="normal" in2="BackgroundImageFix" result="effect1_dropShadow_401_4103"/>
<feBlend mode="normal" in="SourceGraphic" in2="effect1_dropShadow_401_4103" result="shape"/>
</filter>
<radialGradient id="paint0_radial_401_4103" cx="0" cy="0" r="1" gradientUnits="userSpaceOnUse" gradientTransform="translate(42.5 7.5) rotate(72.7585) scale(75.9111)">
<stop stop-color="#DA2828"/>
<stop offset="1" stop-color="#FF5F5F"/>
</radialGradient>
</defs>
</svg>
