<svg width="28" height="28" viewBox="0 0 28 28" fill="none" xmlns="http://www.w3.org/2000/svg">
<path d="M17.859 8.59711C17.859 10.7834 16.1158 12.5276 14.0001 12.5276C11.8843 12.5276 10.1411 10.7834 10.1411 8.59711C10.1411 6.4108 11.8843 4.66667 14.0001 4.66667C16.1158 4.66667 17.859 6.4108 17.859 8.59711ZM14.0001 23.3333C11.369 23.3333 9.19077 23.3265 7.65989 22.9773C6.90504 22.8051 6.44746 22.5772 6.18907 22.3401C5.97629 22.1448 5.83341 21.8878 5.83341 21.4176C5.83341 21.1789 5.95056 20.7769 6.33798 20.2535C6.71491 19.7442 7.2916 19.199 8.04668 18.6966C9.55731 17.6915 11.668 16.9333 14.0001 16.9333C16.3322 16.9333 18.4429 17.6915 19.9535 18.6966C20.7086 19.199 21.2853 19.7442 21.6622 20.2535C22.0496 20.7769 22.1667 21.1789 22.1667 21.4176C22.1667 21.8878 22.0239 22.1448 21.8111 22.3401C21.5527 22.5772 21.0951 22.8051 20.3403 22.9773C18.8094 23.3265 16.6312 23.3333 14.0001 23.3333Z" stroke="white" stroke-width="2.33333" stroke-linecap="square"/>
</svg>
