<svg width="165" height="107" viewBox="0 0 165 107" fill="none" xmlns="http://www.w3.org/2000/svg">
<rect width="165" height="107" fill="#F4F4F8"/>
<g filter="url(#filter0_f_410_4461)">
<path d="M80.7587 97.7471L42.3369 88.3235L118.415 87.603L80.7587 97.7471Z" fill="url(#paint0_linear_410_4461)" fill-opacity="0.49"/>
</g>
<g filter="url(#filter1_f_410_4461)">
<path d="M150.043 71.9537C151.044 76.6765 134.204 84.2496 112.428 88.8686C90.6517 93.4876 72.1868 93.4035 71.185 88.6808C70.1832 83.958 87.024 76.3849 108.8 71.7659C130.576 67.1468 149.041 67.2309 150.043 71.9537Z" fill="url(#paint1_radial_410_4461)" fill-opacity="0.35"/>
</g>
<path d="M80.5983 38.4157L40.8042 34.6258L79.9667 28.9409L118.497 33.3625L80.5983 38.4157Z" fill="#86CFFF"/>
<path d="M80.5981 97.7911V38.4158L118.497 33.3625V87.6847L80.5981 97.7911Z" fill="url(#paint2_linear_410_4461)"/>
<path d="M80.5983 97.7912L40.8042 88.9481V34.626L80.5983 38.4159V97.7912Z" fill="url(#paint3_linear_410_4461)"/>
<path d="M54.7002 35.8892L66.0699 36.8964V94.5588L54.7002 92.1063V35.8892Z" fill="url(#paint4_linear_410_4461)"/>
<path d="M106.496 34.9785L95.1259 36.4814V93.9483L106.496 90.9063V34.9785Z" fill="url(#paint5_linear_410_4461)"/>
<path d="M102.777 31.5496L66.1594 36.9579L54.7949 35.8905L91.0645 30.2842L102.777 31.5496Z" fill="url(#paint6_linear_410_4461)"/>
<path d="M67.6403 30.7141L106.505 34.977L95.1278 36.4848L57.0703 32.2649L67.6403 30.7141Z" fill="url(#paint7_linear_410_4461)"/>
<g filter="url(#filter2_f_410_4461)">
<path d="M49.2365 54.0326L47.519 43.8773C52.262 29.8391 72.86 30.5119 79.4558 30.8354C79.2168 31.7912 80.0755 33.4233 80.5982 34.6181C62.916 37.2465 54.7865 42.0374 49.2365 54.0326Z" fill="#278BD2" fill-opacity="0.25"/>
</g>
<g filter="url(#filter3_f_410_4461)">
<path d="M97.64 41.208C94.6165 39.3334 84.4877 34.8838 79.8013 32.8934L82.758 30.8291C96.8621 29.766 108.421 37.7098 112.437 41.8147C111.515 42.3 110.665 49.0748 110.355 52.4016C109.07 49.478 101.419 43.5512 97.64 41.208Z" fill="#278BD2" fill-opacity="0.25"/>
</g>
<path d="M99.2752 39.9319C96.2517 38.0573 86.123 33.6077 81.4365 31.6172L84.3933 29.553C98.4973 28.4899 110.056 36.4337 114.072 40.5385C113.151 41.0239 112.3 47.7987 111.99 51.1254C110.705 48.2019 103.055 42.2751 99.2752 39.9319Z" fill="url(#paint8_linear_410_4461)"/>
<path d="M109.843 19.0884C103.471 25.1745 95.9749 26.379 93.0232 26.2205L82.5625 31.5102C98.1937 36.0272 114.954 27.0527 115.905 20.396C116.355 17.2451 112.181 18.2365 109.843 19.0884Z" fill="url(#paint9_linear_410_4461)"/>
<path d="M55.9616 9.29932C70.0994 8.01384 78.39 20.7496 80.7504 28.2664L77.4473 30.1536C75.8746 26.8285 70.3028 19.356 60.597 16.0668C50.8913 12.7777 49.9845 19.2256 50.9282 23.0899C46.9066 18.8362 48.1468 10.0099 55.9616 9.29932Z" fill="url(#paint10_linear_410_4461)"/>
<path d="M112.604 11.4062C102.628 5.42149 86.2252 20.7828 80.75 27.6325V30.8245C81.7698 32.1102 86.4428 32.8329 96.9766 25.4379C107.51 18.043 114.001 19.076 115.929 20.5168C116.089 17.3248 114.267 12.4037 112.604 11.4062Z" fill="url(#paint11_linear_410_4461)"/>
<path d="M59.874 26.2074C71.7275 25.4561 77.7915 27.1856 79.3418 28.1443C78.464 29.8059 74.6354 32.7464 66.3434 31.216C57.7174 29.8943 52.0597 25.2799 50.9004 23.0422C53.1264 25.9917 57.8103 26.3813 59.874 26.2074Z" fill="url(#paint12_linear_410_4461)"/>
<path d="M46.9743 52.4015L45.2568 42.2462C49.9998 28.208 70.5978 28.8808 77.1936 29.2043C76.9546 30.1601 77.8133 31.7922 78.336 32.987C60.6538 35.6154 52.5243 40.4063 46.9743 52.4015Z" fill="url(#paint13_linear_410_4461)"/>
<path d="M82.5519 33.5968C82.074 34.2992 80.2655 34.501 79.1396 34.501C76.5187 34.5008 75.8817 29.3755 76.5517 27.097C76.944 26.178 78.4269 25.5149 79.7253 25.4986C82.8412 25.1726 84.2907 31.0412 82.5519 33.5968Z" fill="url(#paint14_linear_410_4461)"/>
<defs>
<filter id="filter0_f_410_4461" x="40.6567" y="85.9228" width="79.4386" height="13.5045" filterUnits="userSpaceOnUse" color-interpolation-filters="sRGB">
<feFlood flood-opacity="0" result="BackgroundImageFix"/>
<feBlend mode="normal" in="SourceGraphic" in2="BackgroundImageFix" result="shape"/>
<feGaussianBlur stdDeviation="0.840118" result="effect1_foregroundBlur_410_4461"/>
</filter>
<filter id="filter1_f_410_4461" x="64.8261" y="62.0394" width="91.5754" height="36.5557" filterUnits="userSpaceOnUse" color-interpolation-filters="sRGB">
<feFlood flood-opacity="0" result="BackgroundImageFix"/>
<feBlend mode="normal" in="SourceGraphic" in2="BackgroundImageFix" result="shape"/>
<feGaussianBlur stdDeviation="3.15826" result="effect1_foregroundBlur_410_4461"/>
</filter>
<filter id="filter2_f_410_4461" x="45.519" y="28.7141" width="37.0791" height="27.3186" filterUnits="userSpaceOnUse" color-interpolation-filters="sRGB">
<feFlood flood-opacity="0" result="BackgroundImageFix"/>
<feBlend mode="normal" in="SourceGraphic" in2="BackgroundImageFix" result="shape"/>
<feGaussianBlur stdDeviation="1" result="effect1_foregroundBlur_410_4461"/>
</filter>
<filter id="filter3_f_410_4461" x="77.8013" y="28.7322" width="36.6353" height="25.6694" filterUnits="userSpaceOnUse" color-interpolation-filters="sRGB">
<feFlood flood-opacity="0" result="BackgroundImageFix"/>
<feBlend mode="normal" in="SourceGraphic" in2="BackgroundImageFix" result="shape"/>
<feGaussianBlur stdDeviation="1" result="effect1_foregroundBlur_410_4461"/>
</filter>
<linearGradient id="paint0_linear_410_4461" x1="99.7618" y1="99.7887" x2="73.1753" y2="76.8646" gradientUnits="userSpaceOnUse">
<stop/>
<stop offset="1" stop-opacity="0"/>
</linearGradient>
<radialGradient id="paint1_radial_410_4461" cx="0" cy="0" r="1" gradientUnits="userSpaceOnUse" gradientTransform="translate(108.23 89.8644) rotate(-83.3318) scale(20.4042 94.4448)">
<stop/>
<stop offset="1" stop-opacity="0"/>
</radialGradient>
<linearGradient id="paint2_linear_410_4461" x1="119.129" y1="61.7869" x2="81.2298" y2="72.525" gradientUnits="userSpaceOnUse">
<stop stop-color="#0070C0"/>
<stop offset="1" stop-color="#419DDE"/>
</linearGradient>
<linearGradient id="paint3_linear_410_4461" x1="81.23" y1="69.9985" x2="40.8042" y2="62.4187" gradientUnits="userSpaceOnUse">
<stop stop-color="#53B5F5"/>
<stop offset="1" stop-color="#A4DBFF"/>
</linearGradient>
<linearGradient id="paint4_linear_410_4461" x1="59.7534" y1="92.9047" x2="49.4634" y2="43.5127" gradientUnits="userSpaceOnUse">
<stop stop-color="#91D3FF"/>
<stop offset="0.149368" stop-color="#C8E9FF"/>
<stop offset="1" stop-color="#D7EFFF"/>
</linearGradient>
<linearGradient id="paint5_linear_410_4461" x1="101.442" y1="92.2857" x2="80.2773" y2="38.4641" gradientUnits="userSpaceOnUse">
<stop stop-color="#36A5ED"/>
<stop offset="0.149368" stop-color="#59BEFF"/>
<stop offset="1" stop-color="#71C4FF"/>
</linearGradient>
<linearGradient id="paint6_linear_410_4461" x1="77.7845" y1="37.7737" x2="83.1203" y2="18.125" gradientUnits="userSpaceOnUse">
<stop stop-color="white"/>
<stop offset="0.171979" stop-color="#CAEAFF"/>
<stop offset="1" stop-color="#DDF2FF"/>
</linearGradient>
<linearGradient id="paint7_linear_410_4461" x1="66.944" y1="26.4374" x2="64.8842" y2="49.1761" gradientUnits="userSpaceOnUse">
<stop stop-color="#F3FAFF"/>
<stop offset="1" stop-color="#A7DCFF"/>
</linearGradient>
<linearGradient id="paint8_linear_410_4461" x1="114.072" y1="45.7227" x2="92.3983" y2="21.7134" gradientUnits="userSpaceOnUse">
<stop stop-color="#65C2FF"/>
<stop offset="0.611207" stop-color="#C6E8FF"/>
<stop offset="1" stop-color="#54B2F6"/>
</linearGradient>
<linearGradient id="paint9_linear_410_4461" x1="104.688" y1="21.6568" x2="114.379" y2="37.9528" gradientUnits="userSpaceOnUse">
<stop stop-color="#53B1F5"/>
<stop offset="1" stop-color="#A4DBFF"/>
</linearGradient>
<linearGradient id="paint10_linear_410_4461" x1="80.7505" y1="27.1197" x2="55.6544" y2="9.18195" gradientUnits="userSpaceOnUse">
<stop stop-color="#39A0E3"/>
<stop offset="0.782831" stop-color="#D9F0FF"/>
<stop offset="1" stop-color="#A4DBFF"/>
</linearGradient>
<linearGradient id="paint11_linear_410_4461" x1="117.261" y1="14.2251" x2="77.8125" y2="33.0585" gradientUnits="userSpaceOnUse">
<stop stop-color="#65C2FF"/>
<stop offset="0.333806" stop-color="#C6E8FF"/>
<stop offset="0.826733" stop-color="#56B9FA"/>
</linearGradient>
<linearGradient id="paint12_linear_410_4461" x1="79.7932" y1="27.8592" x2="71.3055" y2="7.04993" gradientUnits="userSpaceOnUse">
<stop stop-color="#3AA1E4"/>
<stop offset="1" stop-color="#A4DBFF"/>
</linearGradient>
<linearGradient id="paint13_linear_410_4461" x1="79.1776" y1="30.8883" x2="45.2568" y2="49.307" gradientUnits="userSpaceOnUse">
<stop stop-color="#57B9FF"/>
<stop offset="0.565881" stop-color="#E7F5FF"/>
<stop offset="0.981829" stop-color="#BDE3FD"/>
</linearGradient>
<linearGradient id="paint14_linear_410_4461" x1="83.9686" y1="30.615" x2="75.7842" y2="29.9933" gradientUnits="userSpaceOnUse">
<stop offset="0.0356754" stop-color="#7DCCFF"/>
<stop offset="0.734812" stop-color="#A4DBFF"/>
<stop offset="1" stop-color="#80CBFC"/>
</linearGradient>
</defs>
</svg>
