<svg width="21" height="20" viewBox="0 0 21 20" fill="none" xmlns="http://www.w3.org/2000/svg">
<path d="M17.1663 10V18.3333H3.83301V10" stroke="white" stroke-width="1.66667" stroke-linecap="round" stroke-linejoin="round"/>
<path d="M18.8337 5.83325H2.16699V9.99992H18.8337V5.83325Z" stroke="white" stroke-width="1.66667" stroke-linecap="round" stroke-linejoin="round"/>
<path d="M10.5 18.3333V5.83325" stroke="white" stroke-width="1.66667" stroke-linecap="round" stroke-linejoin="round"/>
<path d="M10.5003 5.83341H6.75033C6.19779 5.83341 5.66789 5.61392 5.27719 5.22322C4.88649 4.83252 4.66699 4.30262 4.66699 3.75008C4.66699 3.19755 4.88649 2.66764 5.27719 2.27694C5.66789 1.88624 6.19779 1.66675 6.75033 1.66675C9.66699 1.66675 10.5003 5.83341 10.5003 5.83341Z" stroke="white" stroke-width="1.66667" stroke-linecap="round" stroke-linejoin="round"/>
<path d="M10.5 5.83341H14.25C14.8025 5.83341 15.3324 5.61392 15.7231 5.22322C16.1138 4.83252 16.3333 4.30262 16.3333 3.75008C16.3333 3.19755 16.1138 2.66764 15.7231 2.27694C15.3324 1.88624 14.8025 1.66675 14.25 1.66675C11.3333 1.66675 10.5 5.83341 10.5 5.83341Z" stroke="white" stroke-width="1.66667" stroke-linecap="round" stroke-linejoin="round"/>
</svg>
